<svg id="logo-24" xmlns="http://www.w3.org/2000/svg" viewBox="0 0 97 50"><path d="M24.58,24.58l.2,0H41.3l6.2,6.21H30.74Z" style="fill:#354046"/><path d="M19.26,24.53H2.5l6.21,6.21H19.26Z" style="fill:#354046"/><path d="M24.35,23.65l-.19,0,6.16,6.17V46.61H25l-6.2-6.2h5.27V23.65H18.84V18.37h5.27V1.61l6.21,6.21V18.37H24.11v5.28Z" style="fill:#0188df;stroke:#fff;stroke-miterlimit:10"/><path d="M41.3,24.53l6.2,6.21V25.47l-6.2-6.21Z" style="fill:#0188df"/><path d="M51,16.34a4.05,4.05,0,0,1-1-.1c-.25-.07-.38-.17-.38-.3a.83.83,0,0,1,.15-.33c.09-.16.17-.24.22-.24s.12,0,.12.05a.09.09,0,0,1,0,.07.16.16,0,0,0,0,.08s0,0,.12.09a1.72,1.72,0,0,0,.39.11,2.87,2.87,0,0,0,.63.05,2.12,2.12,0,0,0,1-.23,1.73,1.73,0,0,0,.69-.58,1.2,1.2,0,0,0,.24-.68.93.93,0,0,0-.41-.74A4.94,4.94,0,0,0,51.32,13c-.59-.19-1-.35-1.37-.48a2.41,2.41,0,0,1-.79-.48.92.92,0,0,1-.3-.7,1.5,1.5,0,0,1,.62-1.08A4.71,4.71,0,0,1,51,9.39a5,5,0,0,1,1.69-.34c.27,0,.41.06.43.16a2,2,0,0,1,0,.36c0,.1,0,.15-.11.15l-.12,0-.11-.06-.14,0-.23,0a3.71,3.71,0,0,0-1.25.27,5.25,5.25,0,0,0-1.27.67c-.35.27-.53.53-.53.77a.67.67,0,0,0,.24.52,2.08,2.08,0,0,0,.66.38c.27.1.66.23,1.16.38a5.3,5.3,0,0,1,1.62.72,1.21,1.21,0,0,1,.53,1,1.73,1.73,0,0,1-.33,1,2.49,2.49,0,0,1-1,.79A3,3,0,0,1,51,16.34Z" style="fill:#1d1d1b;stroke:#0188df;stroke-miterlimit:10"/><path d="M58.66,15.64a.5.5,0,0,1-.1.28c-.06.1-.13.15-.2.15a.29.29,0,0,1-.26-.21,1.22,1.22,0,0,1-.09-.49q0-.24,0-1.44v-.38a.42.42,0,0,0-.12-.33q-.45.76-.84,1.32a5.16,5.16,0,0,1-1,1.06,2,2,0,0,1-1.26.49.6.6,0,0,1-.49-.2.73.73,0,0,1-.18-.52,2.61,2.61,0,0,1,.36-1.09,9.65,9.65,0,0,1,.92-1.41,8,8,0,0,1,1.12-1.18,3.59,3.59,0,0,1,.59-.4,1,1,0,0,1,.39-.11.7.7,0,0,1,.33.1.86.86,0,0,1,.29.28.73.73,0,0,1,.12.41,1,1,0,0,1-.17.59l.17-.05c.08,0,.12.09.13.27s0,.33,0,.65,0,.6,0,.81,0,.44,0,.64,0,.37,0,.49a.37.37,0,0,0,.08.15A.19.19,0,0,1,58.66,15.64Zm-.87-2.81a1.71,1.71,0,0,0,.12-.65.56.56,0,0,0-.12-.36.43.43,0,0,0-.34-.16,1.17,1.17,0,0,0-.64.34,8.08,8.08,0,0,0-1,1A8.72,8.72,0,0,0,55,14.27a2.32,2.32,0,0,0-.33,1c0,.2.1.3.28.3a1.62,1.62,0,0,0,1-.4,4.29,4.29,0,0,0,.9-1C57.18,13.83,57.47,13.37,57.79,12.83Z" style="fill:#354046"/><path d="M62.67,16.37a.33.33,0,0,1-.17,0,.15.15,0,0,1-.06-.13c0-.27,0-.69.06-1.27s.06-1.12.06-1.53,0-.71,0-1-.08-.38-.16-.38-.48.29-.75.85-.58,1.3-.92,2.22l-.15.4a.36.36,0,0,1-.14.16.35.35,0,0,1-.19.06.35.35,0,0,1-.17,0s0-.05,0-.12l-.08-.82-.15-1.44q-.08-.86-.18-1.5c0-.1,0-.17,0-.23a.27.27,0,0,1,.13-.24.49.49,0,0,1,.3-.1c.06,0,.11.16.14.48s.06.84.1,1.55l0,.53c0,.68.08,1.1.09,1.28a1.12,1.12,0,0,1,.05-.13c0-.05,0-.11.07-.17a22.29,22.29,0,0,1,1-2.33c.32-.62.62-.94.92-.94s.34.18.42.53A8.48,8.48,0,0,1,63,13.42c0,.61,0,1.5,0,2.66a.3.3,0,0,1-.1.21A.36.36,0,0,1,62.67,16.37Z" style="fill:#354046"/><path d="M67.74,12.27l-1,.18-.65.11c0,.35,0,.71,0,1.09s0,.72,0,1a3.84,3.84,0,0,0,.14.89c.07.21.1.33.11.35a.24.24,0,0,1-.12.19.43.43,0,0,1-.24.08.17.17,0,0,1-.1,0,.22.22,0,0,1-.07-.12,2,2,0,0,1-.11-.52q-.06-.37-.09-.84c0-.27,0-.59,0-1s0-.72,0-1.06c-.37.06-.76.14-1.15.22a3.94,3.94,0,0,1-.63.11.36.36,0,0,1-.22-.07.21.21,0,0,1-.11-.19.18.18,0,0,1,.09-.17,1,1,0,0,1,.3,0,2.16,2.16,0,0,0,.44-.05l.37-.08.91-.17c0-.14,0-.32,0-.55s0-.54,0-.7a4.54,4.54,0,0,1,0-.6,1.24,1.24,0,0,1,.09-.39.3.3,0,0,1,.3-.2.17.17,0,0,1,.12,0,.16.16,0,0,1,0,.11s0,.16,0,.35A5.2,5.2,0,0,0,66,11c0,.25,0,.53,0,.83v.27c.3,0,.89-.17,1.78-.37a.24.24,0,0,0,.14-.14c0-.08.07-.12.11-.12a.37.37,0,0,1,.23.13.4.4,0,0,1,.11.25.29.29,0,0,1-.14.26A1.45,1.45,0,0,1,67.74,12.27Z" style="fill:#354046"/><path d="M72.33,13.61a2.55,2.55,0,0,1-.26.79,3.44,3.44,0,0,1-.8,1.13,1.81,1.81,0,0,1-1.31.52,1.52,1.52,0,0,1-1.08-.4,1.61,1.61,0,0,1-.42-1.23,3.56,3.56,0,0,1,.35-1.54,3.65,3.65,0,0,1,.94-1.25A1.9,1.9,0,0,1,71,11.14a1.13,1.13,0,0,1,.62.17.53.53,0,0,1,.25.47.9.9,0,0,1-.39.68,3.64,3.64,0,0,1-1,.58,6.07,6.07,0,0,1-1.31.36,3.6,3.6,0,0,0-.12.9,1.35,1.35,0,0,0,.28.9.94.94,0,0,0,.78.32A1.56,1.56,0,0,0,71.3,15a5,5,0,0,0,.8-1.24.52.52,0,0,0,.07-.15q.06-.12.09-.12S72.33,13.51,72.33,13.61Zm-1.5-2.06a1.31,1.31,0,0,0-.73.25,2.54,2.54,0,0,0-.58.6,2.22,2.22,0,0,0-.31.62,3.43,3.43,0,0,0,1-.26A4,4,0,0,0,71,12.3c.23-.16.34-.3.34-.41a.28.28,0,0,0-.16-.25A.8.8,0,0,0,70.83,11.55Zm-.35-.77a.17.17,0,0,1-.14,0,.15.15,0,0,1-.06-.13,1.61,1.61,0,0,1,.33-.36,3.63,3.63,0,0,0,.56-.57l.25-.36.15-.22A.16.16,0,0,1,71.68,9a.31.31,0,0,1,.21.11.31.31,0,0,1,.11.21c0,.09-.1.25-.32.48a6,6,0,0,1-.69.64A1.18,1.18,0,0,1,70.48,10.78Z" style="fill:#354046"/><path d="M55.32,21a5.93,5.93,0,0,1-.63.26l-.42.15c0,.82,0,1.51,0,2.08a1.2,1.2,0,0,0,.07.46,1,1,0,0,1,.06.22.21.21,0,0,1-.11.19.39.39,0,0,1-.23.07c-.1,0-.16-.07-.19-.21s0-.07,0-.18a2.49,2.49,0,0,1,0-.45c0-.52,0-1.37-.06-2.56,0-.6,0-1,0-1.28s0-.41,0-.59,0-.31,0-.38c-.42.12-.78.23-1.09.35l-.42.23-.23.13a.46.46,0,0,1-.18.06.17.17,0,0,1-.14-.07.24.24,0,0,1-.06-.17c0-.08.13-.19.38-.32A6.59,6.59,0,0,1,53,18.6a8.44,8.44,0,0,1,1-.27,7.27,7.27,0,0,1,1.2-.1,3.45,3.45,0,0,1,1.43.24.75.75,0,0,1,.52.7,1.31,1.31,0,0,1-.48,1A5.08,5.08,0,0,1,55.32,21Zm-.13-2.36a7.54,7.54,0,0,0-.94.06c0,.06,0,.18,0,.37s0,.38,0,.55v.73c0,.16,0,.37,0,.61a3.8,3.8,0,0,0,.89-.3A4.84,4.84,0,0,0,56.23,20a1,1,0,0,0,.45-.76c0-.22-.14-.38-.43-.48A3.58,3.58,0,0,0,55.19,18.63Z" style="fill:#1d1d1b;stroke:#0188df;stroke-miterlimit:10"/><path d="M58.67,24.08a1.22,1.22,0,0,1-1-.37,1.31,1.31,0,0,1-.32-.92,5.53,5.53,0,0,1,.17-1.19,5,5,0,0,1,.5-1.27s.06-.12.16-.29a1.31,1.31,0,0,1,.33-.39.62.62,0,0,1,.38-.14.3.3,0,0,1,.16,0,.14.14,0,0,1,.08.11s0,0-.06.1l-.08.11a5.05,5.05,0,0,0-.55.81,5.84,5.84,0,0,0-.44,1,3.83,3.83,0,0,0-.15,1.09c0,.53.32.79,1,.79a1.39,1.39,0,0,0,.83-.26,2.07,2.07,0,0,0,.62-.63A1.37,1.37,0,0,0,60.5,22a.93.93,0,0,0-.23-.61,5.37,5.37,0,0,0-.63-.55,2.43,2.43,0,0,1-.38-.31c-.08-.08-.12-.14-.12-.2s0-.14.17-.19a1,1,0,0,1,.4-.08l.17,0a.07.07,0,0,1,0,.05s0,0,0,.07a.13.13,0,0,0,0,.07s.06.09.2.2a5.29,5.29,0,0,1,.67.67,1.27,1.27,0,0,1,.27.8,1.92,1.92,0,0,1-.29.9,2.74,2.74,0,0,1-.82.88A2.13,2.13,0,0,1,58.67,24.08Z" style="fill:#354046"/><path d="M65.56,24.18c-.14,0-.26-.14-.37-.42a2.9,2.9,0,0,1-.2-.87q0-.42-.06-1.74c0-.14,0-.28,0-.42s0-.27,0-.37a16.49,16.49,0,0,1-.79,1.57,11.62,11.62,0,0,1-1,1.51c-.34.42-.61.63-.82.63a.43.43,0,0,1-.44-.35,4.24,4.24,0,0,1-.1-1.11A8.33,8.33,0,0,1,61.93,21a5.56,5.56,0,0,1,.43-1.37.91.91,0,0,1,.17-.28.21.21,0,0,1,.16-.08c.16,0,.25,0,.25.1a.84.84,0,0,1-.1.23,6.13,6.13,0,0,0-.47,1.2,6.87,6.87,0,0,0-.2,1.88c0,.53.07.79.22.79s.4-.19.7-.57A10.34,10.34,0,0,0,64,21.52a13,13,0,0,0,.67-1.39,6,6,0,0,0,.18-.62,1.36,1.36,0,0,1,.06-.24c0-.05,0-.08.07-.08a.45.45,0,0,1,.24.09.27.27,0,0,1,.13.19q0,.48,0,1.65c0,.78,0,1.31.09,1.61a1.71,1.71,0,0,0,.14.61,1.53,1.53,0,0,0,.21.35.58.58,0,0,1,.1.15.33.33,0,0,1-.09.25A.35.35,0,0,1,65.56,24.18Z" style="fill:#354046"/><path d="M69.73,20.12a.2.2,0,0,1-.14-.06.9.9,0,0,1-.14-.17.79.79,0,0,0-.19-.17.48.48,0,0,0-.23-.07c-.2,0-.46.26-.78.77a11.4,11.4,0,0,0-1,1.92c0,.16,0,.35,0,.58s0,.41,0,.52l0,.4a.49.49,0,0,1-.06.25.24.24,0,0,1-.22.1c-.12,0-.19-.15-.22-.45a11,11,0,0,1-.06-1.33c0-.14,0-.35,0-.63s0-.6,0-1q0-.86,0-1.23c0-.15.09-.23.28-.23a.18.18,0,0,1,.2.15,2.28,2.28,0,0,1,0,.55v1.59a7.85,7.85,0,0,1,.65-1.33,4,4,0,0,1,.68-.85.94.94,0,0,1,.6-.3,1.07,1.07,0,0,1,.42.1,1,1,0,0,1,.32.26.48.48,0,0,1,.12.29.46.46,0,0,1-.34.32Z" style="fill:#354046"/><path d="M61.46,26.15a.73.73,0,0,1-.2,0,1.05,1.05,0,0,0-.33-.06c-.32,0-.68,0-1.09.05a9.13,9.13,0,0,0-1,.14c0,.32,0,.83.06,1.52s0,1.41,0,2.17c0,.32,0,.68,0,1.07a5.16,5.16,0,0,1,0,.73.24.24,0,0,1-.13.18.44.44,0,0,1-.24.07.17.17,0,0,1-.12-.06.22.22,0,0,1,0-.14v-.35q.06-.78.06-1.92c0-.54,0-1.17,0-1.87s0-1.14,0-1.31a22,22,0,0,0-2.67.41.77.77,0,0,1-.27,0,.56.56,0,0,1-.35-.13.36.36,0,0,1-.17-.28.17.17,0,0,1,.06-.14.25.25,0,0,1,.15,0l1-.06c.6-.05,1.34-.13,2.24-.25a4.17,4.17,0,0,1,0-.44c0-.08,0-.13.06-.13a.46.46,0,0,1,.34.15.33.33,0,0,1,.05.16.64.64,0,0,1,0,.16,4.9,4.9,0,0,0,.72-.1A12.31,12.31,0,0,1,61,25.49a1.15,1.15,0,0,1,.64.12.33.33,0,0,1,.11.29.25.25,0,0,1-.07.17A.22.22,0,0,1,61.46,26.15Z" style="fill:#1d1d1b;stroke:#0188df;stroke-miterlimit:10"/><path d="M62.61,32.08a1.22,1.22,0,0,1-1-.37,1.36,1.36,0,0,1-.32-.92,5.05,5.05,0,0,1,.18-1.19A4.93,4.93,0,0,1,62,28.33l.16-.29a1.31,1.31,0,0,1,.33-.39.64.64,0,0,1,.38-.14.28.28,0,0,1,.16,0,.12.12,0,0,1,.08.11.29.29,0,0,1,0,.1l-.09.11a5.36,5.36,0,0,0-1,1.82,3.5,3.5,0,0,0-.16,1.09c0,.53.32.79,1,.79a1.39,1.39,0,0,0,.83-.26,2,2,0,0,0,.62-.63,1.37,1.37,0,0,0,.23-.69.93.93,0,0,0-.23-.61,4.11,4.11,0,0,0-.63-.55,3,3,0,0,1-.38-.31c-.08-.08-.12-.14-.12-.2s.06-.14.17-.19a1,1,0,0,1,.4-.08.54.54,0,0,1,.17,0,.05.05,0,0,1,0,.05.13.13,0,0,1,0,.07s0,.05,0,.07.07.09.2.2a4.7,4.7,0,0,1,.67.67,1.27,1.27,0,0,1,.27.8,1.92,1.92,0,0,1-.29.9,2.64,2.64,0,0,1-.82.88A2.1,2.1,0,0,1,62.61,32.08Z" style="fill:#354046"/><path d="M69.5,32.18c-.13,0-.26-.14-.37-.42a3.24,3.24,0,0,1-.2-.87q0-.42-.06-1.74c0-.14,0-.28,0-.42s0-.27,0-.37a14.41,14.41,0,0,1-.79,1.57,10.68,10.68,0,0,1-1,1.51c-.33.42-.61.63-.82.63a.43.43,0,0,1-.44-.35,4.24,4.24,0,0,1-.1-1.11A8.33,8.33,0,0,1,65.87,29a6,6,0,0,1,.43-1.37,1.17,1.17,0,0,1,.17-.28.23.23,0,0,1,.16-.08c.17,0,.25,0,.25.1a.6.6,0,0,1-.1.23,6.13,6.13,0,0,0-.47,1.2,7.28,7.28,0,0,0-.2,1.88c0,.53.07.79.22.79s.41-.19.7-.57a9.43,9.43,0,0,0,.89-1.38,11.32,11.32,0,0,0,.67-1.39,6,6,0,0,0,.18-.62,1.36,1.36,0,0,1,.06-.24c0-.05,0-.08.07-.08a.45.45,0,0,1,.24.09.25.25,0,0,1,.13.19q0,.48,0,1.65c0,.78.06,1.31.09,1.61a2,2,0,0,0,.14.61,1.53,1.53,0,0,0,.21.35c.07.08.1.13.1.15a.31.31,0,0,1-.34.34Z" style="fill:#354046"/><path d="M71.5,32.35a1.28,1.28,0,0,1-.58-.08.23.23,0,0,1-.15-.22c0-.06.08-.16.23-.31s.25-.23.31-.23.12,0,.12,0a.1.1,0,0,1-.05.08s0,.05,0,.07,0,.06.12.08a1,1,0,0,0,.31,0,2.48,2.48,0,0,0,.84-.15,1.91,1.91,0,0,0,.7-.41.71.71,0,0,0,.27-.53.58.58,0,0,0-.17-.43,1.11,1.11,0,0,0-.43-.23l-.85-.22c-.44-.1-.78-.18-1-.26a1.85,1.85,0,0,1-.58-.29.55.55,0,0,1-.22-.45,1.17,1.17,0,0,1,.47-.88,3.83,3.83,0,0,1,1.08-.63,3,3,0,0,1,.94-.23c.22,0,.34.07.34.2a.63.63,0,0,1-.08.27.24.24,0,0,1-.24.14.22.22,0,0,1-.13,0,.27.27,0,0,0-.14-.05,2.89,2.89,0,0,0-.63.13,2.59,2.59,0,0,0-.78.39.77.77,0,0,0-.35.63.39.39,0,0,0,.27.36,6.92,6.92,0,0,0,1,.28l.18.05.16,0a4.79,4.79,0,0,1,1.18.41.76.76,0,0,1,.41.69,1.26,1.26,0,0,1-.36.85,2.39,2.39,0,0,1-.93.65A3.15,3.15,0,0,1,71.5,32.35Z" style="fill:#354046"/><path d="M75.75,32.26a.45.45,0,0,1-.35-.21,2.17,2.17,0,0,1-.25-.48,1.43,1.43,0,0,1-.09-.35.29.29,0,0,1,.1-.21.34.34,0,0,1,.22-.1.14.14,0,0,1,.11.06,1.36,1.36,0,0,0,.12.18.58.58,0,0,0,.17.23.75.75,0,0,1,.21.37,1.47,1.47,0,0,1,.09.36Q76.08,32.26,75.75,32.26Z" style="fill:#0188df"/></svg>